<?xml version="1.0" standalone="no"?><svg xmlns="http://www.w3.org/2000/svg" viewBox="0 0 1440 320"><path fill="#9587ff" fill-opacity="1" d="M0,256L13.3,256C26.7,256,53,256,80,224C106.7,192,133,128,160,101.3C186.7,75,213,85,240,117.3C266.7,149,293,203,320,186.7C346.7,171,373,85,400,90.7C426.7,96,453,192,480,224C506.7,256,533,224,560,197.3C586.7,171,613,149,640,128C666.7,107,693,85,720,112C746.7,139,773,213,800,240C826.7,267,853,245,880,229.3C906.7,213,933,203,960,181.3C986.7,160,1013,128,1040,149.3C1066.7,171,1093,245,1120,229.3C1146.7,213,1173,107,1200,58.7C1226.7,11,1253,21,1280,53.3C1306.7,85,1333,139,1360,149.3C1386.7,160,1413,128,1427,112L1440,96L1440,0L1426.7,0C1413.3,0,1387,0,1360,0C1333.3,0,1307,0,1280,0C1253.3,0,1227,0,1200,0C1173.3,0,1147,0,1120,0C1093.3,0,1067,0,1040,0C1013.3,0,987,0,960,0C933.3,0,907,0,880,0C853.3,0,827,0,800,0C773.3,0,747,0,720,0C693.3,0,667,0,640,0C613.3,0,587,0,560,0C533.3,0,507,0,480,0C453.3,0,427,0,400,0C373.3,0,347,0,320,0C293.3,0,267,0,240,0C213.3,0,187,0,160,0C133.3,0,107,0,80,0C53.3,0,27,0,13,0L0,0Z"></path></svg>