<?xml version="1.0" standalone="no"?><svg xmlns="http://www.w3.org/2000/svg" viewBox="0 0 1440 320"><path fill="#9587ff" fill-opacity="1" d="M0,160L17.1,138.7C34.3,117,69,75,103,90.7C137.1,107,171,181,206,224C240,267,274,277,309,256C342.9,235,377,181,411,133.3C445.7,85,480,43,514,48C548.6,53,583,107,617,112C651.4,117,686,75,720,90.7C754.3,107,789,181,823,181.3C857.1,181,891,107,926,69.3C960,32,994,32,1029,37.3C1062.9,43,1097,53,1131,80C1165.7,107,1200,149,1234,186.7C1268.6,224,1303,256,1337,234.7C1371.4,213,1406,139,1423,101.3L1440,64L1440,320L1422.9,320C1405.7,320,1371,320,1337,320C1302.9,320,1269,320,1234,320C1200,320,1166,320,1131,320C1097.1,320,1063,320,1029,320C994.3,320,960,320,926,320C891.4,320,857,320,823,320C788.6,320,754,320,720,320C685.7,320,651,320,617,320C582.9,320,549,320,514,320C480,320,446,320,411,320C377.1,320,343,320,309,320C274.3,320,240,320,206,320C171.4,320,137,320,103,320C68.6,320,34,320,17,320L0,320Z"></path></svg>