<?xml version="1.0" standalone="no"?><svg xmlns="http://www.w3.org/2000/svg" viewBox="0 0 1440 320"><path fill="#9587ff" fill-opacity="1" d="M0,256L13.3,256C26.7,256,53,256,80,224C106.7,192,133,128,160,101.3C186.7,75,213,85,240,117.3C266.7,149,293,203,320,186.7C346.7,171,373,85,400,90.7C426.7,96,453,192,480,224C506.7,256,533,224,560,197.3C586.7,171,613,149,640,128C666.7,107,693,85,720,112C746.7,139,773,213,800,240C826.7,267,853,245,880,229.3C906.7,213,933,203,960,181.3C986.7,160,1013,128,1040,149.3C1066.7,171,1093,245,1120,229.3C1146.7,213,1173,107,1200,58.7C1226.7,11,1253,21,1280,53.3C1306.7,85,1333,139,1360,149.3C1386.7,160,1413,128,1427,112L1440,96L1440,320L1426.7,320C1413.3,320,1387,320,1360,320C1333.3,320,1307,320,1280,320C1253.3,320,1227,320,1200,320C1173.3,320,1147,320,1120,320C1093.3,320,1067,320,1040,320C1013.3,320,987,320,960,320C933.3,320,907,320,880,320C853.3,320,827,320,800,320C773.3,320,747,320,720,320C693.3,320,667,320,640,320C613.3,320,587,320,560,320C533.3,320,507,320,480,320C453.3,320,427,320,400,320C373.3,320,347,320,320,320C293.3,320,267,320,240,320C213.3,320,187,320,160,320C133.3,320,107,320,80,320C53.3,320,27,320,13,320L0,320Z"></path></svg>